<svg width="30" height="29" viewBox="0 0 30 29" fill="none" xmlns="http://www.w3.org/2000/svg">
<path d="M7.5741 16.858L7.57406 16.858L7.57121 16.8607C7.56047 16.8708 7.54979 16.8808 7.53919 16.8908C7.36658 17.0526 7.21375 17.1958 7.10507 17.3778C6.9964 17.5598 6.94275 17.7622 6.88215 17.9909C6.8781 18.0062 6.87401 18.0217 6.86988 18.0372L5.98133 21.376C5.97898 21.3848 5.97662 21.3937 5.97424 21.4026C5.9326 21.5588 5.88813 21.7256 5.87225 21.866C5.85478 22.0205 5.85434 22.2817 6.06077 22.4943L6.41949 22.146L6.06077 22.4944C6.2672 22.7069 6.52836 22.7142 6.68333 22.7013C6.82413 22.6895 6.99217 22.65 7.14954 22.613C7.15851 22.6109 7.16743 22.6088 7.17632 22.6067L10.8427 21.7456L10.8427 21.7457L10.8462 21.7448C10.8597 21.7416 10.8731 21.7385 10.8865 21.7354C11.1027 21.6848 11.2942 21.6401 11.4697 21.5459L11.2333 21.1053L11.4697 21.5459C11.6453 21.4517 11.7884 21.3169 11.9502 21.1647C11.961 21.1545 11.9719 21.1443 11.9828 21.134L21.2704 12.4093L21.2906 12.3903L21.2906 12.3903L21.3155 12.3669C21.6579 12.0453 21.9518 11.7692 22.1555 11.5174C22.3731 11.2482 22.5395 10.9456 22.5395 10.5682C22.5395 10.1908 22.3731 9.88814 22.1555 9.61899C21.9518 9.36717 21.6579 9.09111 21.3155 8.76946L21.2906 8.74606L20.4617 7.96739L20.4386 7.94573C20.1339 7.65947 19.8704 7.4119 19.6319 7.24025C19.3758 7.05587 19.0937 6.91748 18.75 6.91748C18.4063 6.91748 18.1242 7.05587 17.8681 7.24025C17.6296 7.4119 17.3661 7.65947 17.0614 7.94572L17.0383 7.96739L7.5741 16.858Z" stroke="white"/>
<path d="M15.625 8.80681L19.375 6.45833L23.125 9.98106L20.625 13.5038L15.625 8.80681Z" fill="white"/>
</svg>
